<?xml version="1.0" encoding="UTF-8" standalone="no"?>
<svg
   width="414.82422pt"
   height="127.28481pt"
   viewBox="0 0 414.8242 127.28481"
   version="1.1"
   id="svg8"
   sodipodi:docname="Imagotipo-PUCP-alta_resolución.ai"
   inkscape:export-filename="Imagotipo-PUCP-alta_resolución.ai.svg"
   inkscape:export-xdpi="96"
   inkscape:export-ydpi="96"
   xmlns:inkscape="http://www.inkscape.org/namespaces/inkscape"
   xmlns:sodipodi="http://sodipodi.sourceforge.net/DTD/sodipodi-0.dtd"
   xmlns="http://www.w3.org/2000/svg"
   xmlns:svg="http://www.w3.org/2000/svg">
  <defs
     id="defs8" />
  <sodipodi:namedview
     id="namedview8"
     pagecolor="#ffffff"
     bordercolor="#000000"
     borderopacity="0.25"
     inkscape:showpageshadow="2"
     inkscape:pageopacity="0.0"
     inkscape:pagecheckerboard="0"
     inkscape:deskcolor="#d1d1d1"
     inkscape:document-units="pt" />
  <path
     fill-rule="nonzero"
     fill="#0f265c"
     fill-opacity="1"
     d="m 70.238283,122.52344 c 1.1289,0.41407 2.22656,0.77735 3.38281,1.11328 6.00781,1.66407 13.74609,-0.79687 14.77344,-1.17578 2.21484,-0.78515 7.03906,-3.23437 8.85547,-4.37109 l -0.45704,-1.07422 c -0.71484,-0.0664 -3.08203,-0.35937 -3.08203,-0.35937 -2.96875,-0.48047 -5.85547,-1.17188 -8.70312,-1.99219 -5.07422,-1.50391 -9.9961,-3.42969 -14.76953,-5.72656 -2.35547,-1.15625 -19.98438,-11.546883 -24.27344,-14.179693 -11.128906,-6.82031 -19.585938,-7.65625 -26.339844,-8.44922 -0.03516,0.25 -0.125,0.50391 -0.179687,0.62109 12.179687,5.71875 18.753906,14.863283 27.796871,21.917973 7.17579,5.59766 14.76954,10.63672 22.9961,13.67578"
     id="path1" />
  <path
     fill-rule="nonzero"
     fill="#0f265c"
     fill-opacity="1"
     d="m 6.3476553,89.562507 c 0,0 -0.351562,0.21093 -0.511718,0.33203 4.9492177,14.957033 28.5585937,39.312503 60.2031257,37.269533 0.0898,-0.35938 0.32812,-1.22656 0.36328,-1.39453 -1.54687,-0.53907 -2.11719,-0.83203 -3.51953,-1.5625 -14.86328,-6.72657 -26.988282,-20.73438 -33.07422,-25.843753 -8.40625,-7.07422 -15.820312,-10.96094 -23.4609377,-8.80078"
     id="path2" />
  <path
     fill-rule="nonzero"
     fill="#0f265c"
     fill-opacity="1"
     d="m 117.85937,96.730467 c -0.15625,-0.16015 -0.29687,-0.34375 -0.44922,-0.50781 -21.191397,10.777353 -53.808587,2.58203 -61.898427,-0.3164 -0.10547,0.10937 -0.37891,0.51171 -0.48438,0.63671 4.33984,2.86329 20.89062,12.238293 31.25391,14.738293 6.76953,1.61328 16.675777,2.91406 23.636707,-3.08594 2.69141,-2.70313 6.38672,-7.10938 8.64063,-10.792973 -0.16016,-0.16016 -0.55469,-0.51953 -0.69922,-0.67188"
     id="path3" />
  <path
     fill-rule="nonzero"
     fill="#0f265c"
     fill-opacity="1"
     d="m 102.77734,83.355467 -0.51953,0.23438 c -3.988277,-4.36719 -8.976557,-7.80078 -14.597657,-9.94922 -1.51953,-3.99609 -2.35156,-8.33203 -2.35156,-12.86328 0,-4.07812 0.67578,-8.00391 1.92187,-11.66406 -3.78906,-1.64453 -7.89453,-2.69922 -12.20312,-3.03906 l -0.14453,0.47656 c 3.55078,0.55469 6.90234,1.72656 9.92969,3.40234 -1.91016,4.48438 -2.96485,9.41797 -2.96485,14.59766 0,4.48437 0.79297,8.78125 2.24219,12.76172 0.0703,0.19921 0.14453,0.39453 0.21875,0.58984 -9.13672,-6.65625 -17.64453,-10.33203 -23.85156,-10.33203 -2.36719,0 -4.40235,0.53515 -6.01172,1.64453 l 0.56641,3.47266 c -0.50391,-0.85547 -0.94922,-1.7461 -1.32813,-2.66797 -1.05469,-2.54688 -1.63672,-5.33985 -1.63672,-8.26953 0,-4.38282 1.30078,-8.45703 3.53906,-11.86328 2.03907,-1.11329 4.22266,-2.00391 6.51563,-2.62891 l 0.0234,-0.0703 0.0156,-0.0156 c 0.70703,-2.02734 1.57422,-3.98047 2.58594,-5.84375 5.58203,-3.0625 11.98828,-4.80078 18.80469,-4.80078 3.45312,0 6.80078,0.44531 9.98828,1.28516 3.53515,0.92968 6.874997,2.33984 9.945307,4.16406 -2.46875,4.45703 -4.187497,9.38672 -4.988277,14.62109 -0.33594,2.1875 -0.50781,4.42969 -0.50781,6.71485 0,7.21484 1.73437,14.02734 4.808587,20.04296 M 79.417963,28.460941 c 2.5625,0 4.97266,0.671875 7.0625,1.847656 l -1.09375,4.78906 c -3.19531,-2.683591 -7.23046,-4.398435 -11.65625,-4.687498 l -0.17968,-0.707031 c 1.79297,-0.796875 3.77734,-1.242187 5.86718,-1.242187 m -31.6914,9.082036 c 0,0 -4.86719,0.70312 -6.4375,1.09375 -1.91016,0.46875 -2.97656,1.64453 -3.222658,4.33203 -0.421874,4.42968 -1.191406,12.00781 -1.191406,12.00781 h -1.328125 c 0,0 -0.75,-7.57813 -1.160156,-12.00781 -0.273437,-2.6875 -1.34375,-3.86328 -3.25,-4.33203 -1.582031,-0.39063 -6.4375,-1.09375 -6.4375,-1.09375 v -1.24219 c 0,0 5.078125,-0.54297 6.710937,-1.09375 1.230469,-0.41797 2.492188,-0.88281 3.101563,-3.105471 0.492187,-1.707031 1.078125,-7.03125 1.078125,-7.03125 h 1.246094 c 0,0 0.585937,5.324219 1.070312,7.03125 0.636724,2.222661 1.894534,2.687501 3.113284,3.105471 1.63281,0.55078 6.70703,1.09375 6.70703,1.09375 z m 78.257807,43.25781 c 1.01172,-2.57422 2.20703,-10.92578 2.20703,-16.70703 C 128.1914,28.699222 99.511713,3.2378041e-6 64.109373,3.2378041e-6 28.710937,3.2378041e-6 -6.5388547e-7,28.699222 -6.5388547e-7,64.093757 c 0,7.61328 1.33203195388547,14.91796 3.76562495388547,21.6875 16.6796877,-7.78125 38.6874987,1.34765 49.5351587,5.85937 1.58594,0.65625 2.96094,1.23047 4.04687,1.63672 l -3.05078,-7.11719 -2.35156,-5.48437 c 0,-0.61328 0.0312,-1.23438 0.0977,-1.84766 0.35156,-2.14062 1.49218,-4.01953 3.11718,-5.32031 2.14844,8.32422 4.85938,13.19531 6.22657,15.29297 0.54296,0.83203 0.875,1.22656 0.875,1.22656 l 1.05859,0.21094 c 0,0 -0.28516,-0.53516 -0.71484,-1.64844 -0.98047,-2.51953 -2.71875,-7.99609 -3.60157,-16.83203 0.004,0 0.008,-0.004 0.0117,-0.004 0.70703,-0.11719 1.45313,-0.15234 2.2461,-0.10156 5.65624,0.32812 13.64453,4.73828 25.16796,11.91797 7.31641,4.55078 16.148437,5.39844 19.828127,-0.1875 h 4.64844 l -2.98438,9.30859 c -0.42187,1.19922 -1.09766,2.26563 -1.96094,3.13281 9.23438,-2.35546 16.51563,-7.07421 20.02344,-15.02343"
     id="path4" />
  <path
     fill-rule="nonzero"
     fill="#0f265c"
     fill-opacity="1"
     d="m 180.47656,46.656257 v 14.125 h 10.79687 c 2.08985,0 3.85938,-0.71875 5.33594,-2.125 1.46875,-1.40235 2.19922,-3.06641 2.19922,-4.94922 0,-1.875 -0.73047,-3.52344 -2.19922,-4.92969 -1.47656,-1.41016 -3.24609,-2.12109 -5.33594,-2.12109 z M 192.25,30.617191 c 7.21484,0 13.09375,2.179687 17.64843,6.554686 4.51563,4.36328 6.80469,9.86328 6.80469,16.51172 0,6.65234 -2.28906,12.16797 -6.83984,16.54687 -4.53516,4.35938 -10.41407,6.54297 -17.61328,6.54297 h -11.77344 v 19.76172 H 162.58203 V 30.617191 Z m 0,0"
     id="path5" />
  <path
     fill-rule="nonzero"
     fill="#0f265c"
     fill-opacity="1"
     d="m 261.85937,78.617187 c 2.40625,-2.54297 3.60547,-5.67187 3.60547,-9.38281 V 30.617191 h 17.87891 v 38.617186 c 0,8.28516 -2.83985,15.20313 -8.54297,20.80469 -5.70703,5.58203 -12.89453,8.38672 -21.5625,8.38672 -8.6875,0 -15.85547,-2.80469 -21.5586,-8.38672 -5.70312,-5.60156 -8.54297,-12.51953 -8.54297,-20.80469 V 30.617191 h 17.86719 v 38.617186 c 0,3.71094 1.21094,6.83984 3.61719,9.38281 2.39062,2.54297 5.27344,3.80078 8.61719,3.80078 3.33593,0 6.21484,-1.25781 8.62109,-3.80078"
     id="path6" />
  <path
     fill-rule="nonzero"
     fill="#0f265c"
     fill-opacity="1"
     d="m 312.99218,77.046877 c 3.58594,3.58984 8.07422,5.37109 13.46875,5.37109 3.35157,0 6.49219,-0.69531 9.47266,-2.10937 2.96875,-1.41406 5.11328,-2.82422 6.44141,-4.27734 l 1.98437,-2.10938 10.32813,11.31641 c -0.23047,0.36718 -0.59766,0.85156 -1.08204,1.44922 -0.46875,0.59765 -1.57421,1.64843 -3.29687,3.16406 -1.73828,1.51953 -3.62109,2.85937 -5.62109,4.02734 -2.00782,1.16797 -4.65625,2.20703 -7.95313,3.14844 -3.29687,0.92969 -6.71094,1.39844 -10.27344,1.39844 -10.23437,0 -18.90625,-3.42578 -26.04297,-10.28516 -7.11328,-6.84766 -10.66796,-15.03516 -10.66796,-24.5625 0,-9.53906 3.55468,-17.71875 10.66796,-24.57812 7.13672,-6.839848 15.8086,-10.273441 26.04297,-10.273441 3.53125,0 6.89453,0.460937 10.07813,1.371093 3.17578,0.929688 5.8164,2.023438 7.87109,3.316407 2.07422,1.285161 3.875,2.582031 5.42188,3.863281 1.55859,1.29297 2.65625,2.39844 3.35156,3.3125 l 1.04687,1.34766 -10.85156,11.30468 c -0.17578,-0.26171 -0.41015,-0.57031 -0.73047,-0.94531 -0.30859,-0.38672 -1.02734,-1.0625 -2.10937,-2.02344 -1.11719,-0.97265 -2.25,-1.83984 -3.45703,-2.57812 -1.1836,-0.75 -2.76563,-1.42578 -4.70703,-2.02344 -1.9375,-0.60547 -3.92579,-0.89844 -5.91407,-0.89844 -5.39453,0 -9.88281,1.79297 -13.46875,5.36329 -3.58984,3.57031 -5.40234,8.05468 -5.40234,13.4414 0,5.38672 1.8125,9.88672 5.40234,13.46875"
     id="path7" />
  <path
     fill-rule="nonzero"
     fill="#0f265c"
     fill-opacity="1"
     d="m 378.60156,46.656257 v 14.125 h 10.8125 c 2.09375,0 3.85547,-0.71875 5.33594,-2.125 1.46484,-1.40235 2.21484,-3.06641 2.21484,-4.94922 0,-1.875 -0.75,-3.52344 -2.21484,-4.92969 -1.48047,-1.41016 -3.24219,-2.12109 -5.33594,-2.12109 z m 11.76562,-16.039066 c 7.25,0 13.125,2.179687 17.65235,6.554686 4.55468,4.36328 6.80468,9.86328 6.80468,16.51172 0,6.65234 -2.25,12.16797 -6.82031,16.54687 -4.55078,4.35938 -10.40625,6.54297 -17.63672,6.54297 h -11.76562 v 19.76172 H 360.71875 V 30.617191 Z m 0,0"
     id="path8" />
</svg>
